<?xml version="1.0" encoding="UTF-8" standalone="no"?><!DOCTYPE svg PUBLIC "-//W3C//DTD SVG 1.1//EN" "http://www.w3.org/Graphics/SVG/1.1/DTD/svg11.dtd"><svg width="100%" height="100%" viewBox="0 0 1114 790" version="1.1" xmlns="http://www.w3.org/2000/svg" xmlns:xlink="http://www.w3.org/1999/xlink" xml:space="preserve" style="fill-rule:evenodd;clip-rule:evenodd;stroke-miterlimit:10;"><path d="M138.32,583.26c-4.54,9.21 2,19.15 -0.29,28.66c-2.84,12 -19.13,21.34 -36.68,27.3c-17.55,5.96 -37.15,9.58 -54.26,16c-7.4,2.77 -15.11,7.88 -11.26,12.58c1.33,1.63 3.83,2.77 6.26,3.84c49.82,21.76 111.41,33.58 173,33.2c65.08,-0.41 128.82,-14 193.85,-12.44c83.88,2 165,29.06 247.93,21.26c35.21,-3.31 67.92,-12.75 102.19,-18.64c50.42,-8.67 103.45,-9.54 155.66,-12.39c39.21,-2.14 84,-7.69 102.75,-28.55c13.54,-15.08 7.86,-35 -11.22,-47.77c-19.08,-12.77 -49.56,-18.23 -77.73,-15.75c-15.14,1.33 -30.19,4.78 -45.32,3.41c-8.79,-0.8 -16.93,-3.18 -24.92,-5.52c-62,-18.2 -126.29,-36.36 -195.15,-39c-112.05,-4.33 -215.81,32.55 -324.92,48.5c-17,2.48 -35.44,4.39 -51.49,0.23c-16.92,-4.39 -28,-14.76 -44.93,-19.13c-8,-2.08 -17,-2.68 -24.91,-4.94c-21.73,-6.22 -11.67,-14.77 -41.78,-9c-15.8,3.01 -31.71,7.87 -36.78,18.15Z" style="fill:#247aff;fill-opacity:0.0596078;fill-rule:nonzero;"/><path d="M716.32,276.08c0,0 74.48,-117.08 83.48,-167.08c9,-50 26,-96 26,-96" style="fill:none;stroke:#535461;stroke-width:2px;"/><path d="M842.8,113l-47,4c0,0 25,43 47,-4Z" style="fill:#247aff;fill-rule:nonzero;"/><path d="M760.8,87l37.22,29.81c0,0 -48.22,19.19 -37.22,-29.81Z" style="fill:#247aff;fill-rule:nonzero;"/><path d="M848.8,72l-42.32,5.67c0,0 37.32,30.33 42.32,-5.67Z" style="fill:#247aff;fill-rule:nonzero;"/><path d="M778.8,57l27.94,19.61c0,0 -33.94,14.39 -27.94,-19.61Z" style="fill:#247aff;fill-rule:nonzero;"/><path d="M817.11,39.19c0,0 34.69,-9.19 39.69,-7.19c5,2 2,24 -12,25c-14,1 -27.69,-17.81 -27.69,-17.81Z" style="fill:#247aff;fill-rule:nonzero;"/><path d="M793.8,13c0,0 22,21 23,26c1,5 -18,17 -28,0c-10,-17 5,-26 5,-26Z" style="fill:#247aff;fill-rule:nonzero;"/><circle cx="834.8" cy="15" r="10" style="fill:#ffd037;"/><circle cx="816.8" cy="10" r="10" style="fill:#ffd037;"/><path d="M163.06,618.56c0,0 -31.82,-83.52 -6.81,-148.75c10.5,-27.38 12.36,-57.34 4.34,-85.55c-3.832,-13.363 -8.88,-26.347 -15.08,-38.79" style="fill:none;stroke:#535461;stroke-width:2px;"/><path d="M161.02,304.23c0.81,10.48 -15.79,42.33 -15.79,42.33c0,0 -21.33,-28.9 -22.14,-39.38c-0.038,-0.491 -0.057,-0.983 -0.057,-1.475c0,-10.438 8.589,-19.027 19.027,-19.027c9.883,0 18.204,7.699 18.97,17.552l-0.01,0Z" style="fill:#247aff;fill-rule:nonzero;"/><path d="M196.88,359.82c-5,9.24 -36.26,26.95 -36.26,26.95c0,0 -2.19,-35.85 2.82,-45.09c3.322,-6.127 9.756,-9.956 16.725,-9.956c10.437,0 19.026,8.589 19.026,19.026c0,3.168 -0.791,6.286 -2.301,9.07l-0.01,0Z" style="fill:#247aff;fill-rule:nonzero;"/><path d="M203.22,459.08c-9,5.44 -44.9,5 -44.9,5c0,0 16.21,-32.06 25.19,-37.5c2.972,-1.8 6.381,-2.751 9.855,-2.751c10.437,0 19.026,8.589 19.026,19.026c0,6.648 -3.484,12.831 -9.171,16.275l0,-0.05Z" style="fill:#247aff;fill-rule:nonzero;"/><path d="M191.1,535.27c-7.94,6.88 -43.42,12.47 -43.42,12.47c0,0 10.56,-34.34 18.49,-41.22c3.459,-2.999 7.887,-4.652 12.465,-4.652c10.438,0 19.027,8.589 19.027,19.027c0,5.513 -2.397,10.763 -6.562,14.375Z" style="fill:#247aff;fill-rule:nonzero;"/><path d="M120.95,391.89c8.08,6.72 43.67,11.56 43.67,11.56c0,0 -11.27,-34.11 -19.36,-40.82c-3.415,-2.839 -7.719,-4.394 -12.16,-4.394c-10.436,0 -19.024,8.588 -19.024,19.024c0,5.651 2.518,11.018 6.864,14.63l0.01,0Z" style="fill:#247aff;fill-rule:nonzero;"/><path d="M107.91,481.17c9.72,4 45.13,-2 45.13,-2c0,0 -21,-29.17 -30.68,-33.16c-2.292,-0.941 -4.747,-1.425 -7.225,-1.425c-10.437,0 -19.025,8.588 -19.025,19.025c0,7.701 4.676,14.675 11.8,17.6l0,-0.04Z" style="fill:#247aff;fill-rule:nonzero;"/><path d="M107.14,569.68c8.91,5.57 44.83,5.62 44.83,5.62c0,0 -15.74,-32.3 -24.64,-37.83c-3.026,-1.894 -6.525,-2.899 -10.095,-2.899c-10.436,0 -19.024,8.588 -19.024,19.024c0,6.547 3.38,12.651 8.929,16.125l0,-0.04Z" style="fill:#247aff;fill-rule:nonzero;"/><path d="M161.02,304.23c0.81,10.48 -15.79,42.33 -15.79,42.33c0,0 -21.33,-28.9 -22.14,-39.38c-0.038,-0.491 -0.057,-0.983 -0.057,-1.475c0,-10.438 8.589,-19.027 19.027,-19.027c9.883,0 18.204,7.699 18.97,17.552l-0.01,0Z" style="fill:#247aff;fill-rule:nonzero;"/><path d="M196.88,359.82c-5,9.24 -36.26,26.95 -36.26,26.95c0,0 -2.19,-35.85 2.82,-45.09c3.322,-6.127 9.756,-9.956 16.725,-9.956c10.437,0 19.026,8.589 19.026,19.026c0,3.168 -0.791,6.286 -2.301,9.07l-0.01,0Z" style="fill:#247aff;fill-rule:nonzero;"/><path d="M203.22,459.08c-9,5.44 -44.9,5 -44.9,5c0,0 16.21,-32.06 25.19,-37.5c2.972,-1.8 6.381,-2.751 9.855,-2.751c10.437,0 19.026,8.589 19.026,19.026c0,6.648 -3.484,12.831 -9.171,16.275l0,-0.05Z" style="fill:#247aff;fill-rule:nonzero;"/><path d="M191.1,535.27c-7.94,6.88 -43.42,12.47 -43.42,12.47c0,0 10.56,-34.34 18.49,-41.22c3.459,-2.999 7.887,-4.652 12.465,-4.652c10.438,0 19.027,8.589 19.027,19.027c0,5.513 -2.397,10.763 -6.562,14.375Z" style="fill:#247aff;fill-rule:nonzero;"/><path d="M120.95,391.89c8.08,6.72 43.67,11.56 43.67,11.56c0,0 -11.27,-34.11 -19.36,-40.82c-3.415,-2.839 -7.719,-4.394 -12.16,-4.394c-10.436,0 -19.024,8.588 -19.024,19.024c0,5.651 2.518,11.018 6.864,14.63l0.01,0Z" style="fill:#247aff;fill-rule:nonzero;"/><path d="M107.91,481.17c9.72,4 45.13,-2 45.13,-2c0,0 -21,-29.17 -30.68,-33.16c-2.292,-0.941 -4.747,-1.425 -7.225,-1.425c-10.437,0 -19.025,8.588 -19.025,19.025c0,7.701 4.676,14.675 11.8,17.6l0,-0.04Z" style="fill:#247aff;fill-rule:nonzero;"/><path d="M107.14,569.68c8.91,5.57 44.83,5.62 44.83,5.62c0,0 -15.74,-32.3 -24.64,-37.83c-3.026,-1.894 -6.525,-2.899 -10.095,-2.899c-10.436,0 -19.024,8.588 -19.024,19.024c0,6.547 3.38,12.651 8.929,16.125l0,-0.04Z" style="fill:#247aff;fill-rule:nonzero;"/><path d="M225.8,603.52c0,0 -24.14,-2.91 -31,-8.75c-6.86,-5.84 -36.21,-14.72 -38.77,-6.55c-2.56,8.17 -40.07,38.18 -12.77,40.85c27.3,2.67 63.91,1.4 71.54,-2.38c7.63,-3.78 11,-23.17 11,-23.17Z" style="fill:#a8a8a8;fill-rule:nonzero;"/><path d="M143.07,626.12c27.31,2.66 63.87,1.41 71.55,-2.37c5.85,-2.88 9.14,-14.8 10.38,-20.33l0.81,0.1c0,0 -3.28,19.38 -11,23.17c-7.72,3.79 -44.24,5 -71.55,2.37c-7.88,-0.77 -10.36,-3.82 -9.84,-8c0.91,2.65 3.78,4.49 9.65,5.06Z" style="fill-opacity:0.2;fill-rule:nonzero;"/><path d="M1047,461.75c-39.2,53.72 -26.2,130.4 -3.6,191.49c7.58,20.45 16.19,42.08 12.26,64.33c-4.8,27.2 -27.36,47.58 -50.81,58.68c-42.75,20.23 -93.25,17 -131.49,-8.49c-33,-22 -56.23,-58.56 -89.87,-79.51c-56.3,-35.05 -129.39,-19.39 -192.05,7.37c-44.33,18.93 -92.89,43.31 -136.09,25.83c-30.4,-12.3 -50.87,-43.61 -61.64,-77.08c-5.2,-16.16 -8.84,-33.7 -19.2,-46.35c-6.16,-7.52 -14.3,-12.76 -22.67,-17.14c-61.998,-32.464 -138.401,-22.113 -204.581,-40.919c-15.363,-4.365 -30.176,-10.302 -44.129,-18.711c-50,-30.14 -81.12,-88.63 -94.05,-150.12c-12.93,-61.49 -9.73,-126.4 -4.58,-190.2c3.66,-45.34 9.45,-93.79 36.71,-129.42c28.83,-37.68 77.15,-52.66 120.36,-46.75c43.21,5.91 81.94,29.94 115.84,58.54c42.39,35.76 81.39,80.63 134.11,94.17c35.91,9.24 74.06,2.7 111.39,-0.19c62.4,-4.82 124.58,0.73 186.38,7c59.16,6 118.73,12.7 174.76,32.37c39.65,13.92 71.08,40.23 108.41,58.21c24.33,11.72 51.1,14.44 74,29.58c28.26,18.65 53.8,51.69 45.51,91.34c-7.83,37.69 -44.17,57.46 -64.97,85.97Z" style="fill:#247aff;fill-opacity:0.0603922;fill-rule:nonzero;"/><path d="M861.25,81.47l-652.9,0c-14.002,-0.011 -25.534,11.498 -25.55,25.5l0,380.5c0.016,14.002 11.548,25.511 25.55,25.5l262.92,0l0,93.77l-24.74,0c-3.343,0 -6.095,2.747 -6.1,6.09l0,12.64l191.88,0l0,-12.66c-0.005,-3.343 -2.757,-6.09 -6.1,-6.09l-31.59,0l0,-93.78l266.63,0c13.99,0.011 25.517,-11.48 25.55,-25.47l0,-380.5c-0.016,-14.002 -11.548,-25.511 -25.55,-25.5Z" style="fill:url(#_Linear1);fill-rule:nonzero;"/><rect x="472.88" y="495.18" width="121.27" height="117.02" style="fill:#0a254d;"/><rect x="472.88" y="601.82" width="121.27" height="10.38" style="fill-opacity:0.1;"/><path d="M448.56,603l176.65,0c3.292,0 6,2.708 6,6l0,12.48l-43.901,0l-144.749,0l0,-12.48c0,-3.292 2.708,-6 6,-6Z" style="fill:#0a254d;fill-rule:nonzero;"/><path d="M881.42,110.59c0,-13.864 -11.256,-25.12 -25.12,-25.12l-641.91,0c-13.864,0 -25.12,11.256 -25.12,25.12l0,374.86c0,13.864 11.256,25.12 25.12,25.12l641.91,0c13.864,0 25.12,-11.256 25.12,-25.12l0,-374.86Z" style="fill:#0a254d;"/><rect x="203.84" y="135.12" width="661.55" height="347.28" style="fill:#fff;"/><ellipse cx="534.62" cy="117.18" rx="5.83" ry="5.76" style="fill:#fff;"/><rect x="473.14" y="510.86" width="120.89" height="2.28" style="fill-opacity:0.1;"/><path d="M574.74,216.22c-31.633,26.201 -49.971,65.203 -49.971,106.278c0,61.197 40.707,115.426 99.471,132.512l38.56,-132.54l-88.06,-106.25Z" style="fill:#d6d6e3;fill-rule:nonzero;"/><path d="M665.8,184.47c-32.157,-0.048 -63.332,11.193 -88.06,31.75l88.06,106.25l72.92,-117.17c-21.868,-13.648 -47.143,-20.868 -72.92,-20.83l0,0Z" style="fill:#d6d6e3;fill-rule:nonzero;"/><path d="M665.8,322.47l-38.56,132.53c12.512,3.633 25.474,5.477 38.503,5.477c74.803,0 136.701,-60.786 138.057,-135.577l-138,-2.43Z" style="fill:#247aff;fill-opacity:0.4;fill-rule:nonzero;"/><rect x="262.8" y="255.47" width="50" height="30" style="fill:#247aff;fill-opacity:0.403922;"/><rect x="262.8" y="307.47" width="50" height="30" style="fill:#247aff;fill-opacity:0.6;"/><rect x="262.8" y="359.47" width="50" height="30" style="fill:#247aff;"/><rect x="339.8" y="264.47" width="94" height="12" style="fill:#d6d6e3;"/><rect x="339.8" y="316.47" width="94" height="12" style="fill:#d6d6e3;"/><rect x="339.8" y="368.47" width="94" height="12" style="fill:#d6d6e3;"/><rect x="203.8" y="134.47" width="662" height="12" style="fill:#d6d6e3;"/><circle cx="211.8" cy="140.47" r="3" style="fill:#fc6681;"/><circle cx="219.8" cy="140.47" r="3" style="fill:#ffc74c;"/><circle cx="227.8" cy="140.47" r="3" style="fill:#85d459;"/><path d="M911.73,541.02c0,0 4.77,6.24 -2.2,15.66c-6.97,9.42 -12.72,17.37 -10.4,23.25c0,0 10.52,-17.5 19.09,-17.74c8.57,-0.24 2.94,-10.65 -6.49,-21.17Z" style="fill:#247aff;fill-rule:nonzero;"/><path d="M911.73,541.02c0.429,0.615 0.765,1.288 1,2c8.36,9.82 12.81,19 4.78,19.21c-7.48,0.21 -16.46,13.59 -18.61,17c0.069,0.261 0.152,0.518 0.25,0.77c0.098,0.252 10.52,-17.5 19.09,-17.74c8.57,-0.24 2.92,-10.72 -6.51,-21.24Z" style="fill-opacity:0.1;fill-rule:nonzero;"/><path d="M920.6,548.97c0,2.2 -0.25,4 -0.55,4c-0.3,0 -0.55,-1.78 -0.55,-4c0,-2.22 0.31,-1.16 0.61,-1.16c0.3,0 0.49,-1.04 0.49,1.16Z" style="fill:#ffd037;fill-rule:nonzero;"/><path d="M923.65,551.59c-1.93,1.05 -3.61,1.69 -3.75,1.42c-0.14,-0.27 1.3,-1.34 3.23,-2.39c1.93,-1.05 1.17,-0.29 1.31,0c0.14,0.29 1.14,-0.08 -0.79,0.97Z" style="fill:#ffd037;fill-rule:nonzero;"/><path d="M886.53,541.02c0,0 -4.77,6.24 2.2,15.66c6.97,9.42 12.72,17.37 10.4,23.25c0,0 -10.52,-17.5 -19.09,-17.74c-8.57,-0.24 -2.93,-10.65 6.49,-21.17Z" style="fill:#247aff;fill-rule:nonzero;"/><path d="M886.53,541.02c-0.429,0.615 -0.765,1.288 -1,2c-8.36,9.82 -12.81,19 -4.78,19.21c7.48,0.21 16.46,13.59 18.61,17c-0.069,0.261 -0.152,0.518 -0.25,0.77c-0.098,0.252 -10.52,-17.5 -19.09,-17.74c-8.57,-0.24 -2.91,-10.72 6.51,-21.24Z" style="fill-opacity:0.1;fill-rule:nonzero;"/><path d="M877.66,548.97c0,2.2 0.25,4 0.55,4c0.3,0 0.55,-1.78 0.55,-4c0,-2.22 -0.31,-1.16 -0.61,-1.16c-0.3,0 -0.49,-1.04 -0.49,1.16Z" style="fill:#ffd037;fill-rule:nonzero;"/><path d="M874.62,551.59c1.93,1.05 3.61,1.69 3.75,1.42c0.14,-0.27 -1.3,-1.34 -3.23,-2.39c-1.93,-1.05 -1.17,-0.29 -1.31,0c-0.14,0.29 -1.14,-0.08 0.79,0.97Z" style="fill:#ffd037;fill-rule:nonzero;"/><path d="M931.8,581.35c0,0 -13.12,-2.62 -16.62,-6.12c-3.5,-3.5 -19.25,-9.62 -21,-5.25c-1.75,4.37 -23.62,19.25 -8.75,21.87c14.87,2.62 35,3.5 39.37,1.75c4.37,-1.75 7,-12.25 7,-12.25Z" style="fill:#a8a8a8;fill-rule:nonzero;"/><path d="M885.43,590.22c14.87,2.62 35,3.5 39.37,1.75c3.33,-1.33 5.65,-7.73 6.56,-10.71l0.44,0.09c0,0 -2.62,10.5 -7,12.25c-4.38,1.75 -24.5,0.87 -39.37,-1.75c-4.29,-0.76 -5.52,-2.54 -5.06,-4.79c0.37,1.46 1.87,2.6 5.06,3.16Z" style="fill-opacity:0.2;fill-rule:nonzero;"/><path d="M837.8,410.98c0.025,-51.772 -26.775,-100.022 -70.74,-127.36l-79.26,127.36l150,2.64c0,-0.87 0,-1.75 0,-2.64Z" style="fill:url(#_Linear2);fill-rule:nonzero;"/><path d="M831.8,406c0.022,-47.629 -24.633,-92.019 -65.08,-117.17l-72.92,117.17l138,2.47c0,-0.85 0,-1.66 0,-2.47Z" style="fill:#247aff;fill-rule:nonzero;"/><path d="M1032.8,261.13c0,-0.387 -0.037,-0.757 -0.11,-1.11c-0.073,-0.353 -0.14,-0.76 -0.2,-1.22c-0.147,-0.8 -0.31,-1.573 -0.49,-2.32c-0.093,-0.373 -0.19,-0.74 -0.29,-1.1c-1.097,-4.132 -3.072,-7.98 -5.79,-11.28l-0.47,-0.54c-0.313,-0.347 -0.62,-0.68 -0.92,-1c-0.3,-0.32 -0.597,-0.607 -0.89,-0.86c-0.29,-0.27 -0.58,-0.52 -0.85,-0.75c-0.55,-0.46 -1.06,-0.84 -1.52,-1.16c-0.46,-0.32 -0.65,-0.44 -0.92,-0.6c-0.657,-0.399 -1.395,-0.646 -2.16,-0.72l-4.76,-0.48l-6.44,-0.64l-23.26,-9.18l-0.92,0.33c-0.679,-1.904 -1.253,-3.843 -1.72,-5.81c0.707,-0.311 1.336,-0.775 1.84,-1.36c0.55,-0.438 0.983,-1.005 1.26,-1.65c0.58,-1.37 -0.54,-4.31 -0.31,-6c0.37,-2.69 1.75,-5.29 2.86,-7.73c2.39,-5.24 4.13,-10.92 3.85,-16.67c-0.28,-5.75 -2.86,-11.59 -7.64,-14.8c-2.47,-1.66 -5.38,-2.55 -7.94,-4.07c-2,-1.18 -3.76,-2.72 -5.67,-4.05c-9.473,-6.43 -21.696,-7.32 -32,-2.33c-4.83,2.42 -8.95,6 -13.51,8.94c-4.56,2.94 -9.93,5.13 -15.26,4.28c-0.075,0.218 -0.129,0.442 -0.16,0.67l-0.45,-0.06c-0.92,2.55 1.33,5.06 3.41,6.8c3.94,3.3 8.4,6.59 13.54,6.71c2,0 4.08,-0.38 5.89,0.45c0.394,0.187 0.764,0.422 1.1,0.7c-2.355,9.443 0.715,19.451 7.96,25.95l-11.87,-4.34c0,0 -0.5,0.26 -1.26,0.75l-16.49,-11.15c0,0 -33.05,-12.26 -42.23,6.74c-9.18,19 39.79,9.15 39.79,9.15l10.48,5.85c-0.347,2.195 0.059,4.444 1.15,6.38l28.57,17.95c-5.77,1.81 -15.26,4.7 -16.94,4.7c-2.45,0 -9.18,2.45 -13.47,12.24c-4.29,9.79 -19.59,57.54 -33.05,65.49c-13.46,7.95 -49,61.21 -49,61.21l0.16,0.42c-0.633,0.167 -1.253,0.353 -1.86,0.56c-8.88,2.94 -14.86,9.13 -18.45,14.15c-0.735,1.021 -1.13,2.247 -1.13,3.505c0,3.016 2.276,5.588 5.27,5.955c14,1.8 21.67,-4.76 25.35,-9.72c0.24,-0.32 0.46,-0.64 0.67,-0.94c1.094,0.477 2.327,0.534 3.46,0.16l17.16,-14.06c0,0 -13.37,13.4 -5.55,25.63l-0.6,0.85c-13.293,19.289 -23.026,40.802 -28.74,63.52c-5.714,22.718 -7.35,5.51 -8,27.54c-0.65,22.03 -8,57.54 -8,57.54c0,0 -4.9,42.23 -1.84,55.09c0,0 0.35,0.51 1,1.29c-0.23,0.28 -0.48,0.57 -0.76,0.88c-2.67,2.93 -7.49,7 -13.1,5.78c-8.57,-1.84 -8.57,13.47 3.67,14.69c7.88,0.79 23.38,4.37 33.41,6.82c0.553,0.136 1.121,0.205 1.69,0.205c3.884,0 7.08,-3.196 7.08,-7.08c0,-0.252 -0.013,-0.504 -0.04,-0.755c-0.6,-5.48 -1.69,-12.12 -3.67,-16.84c-0.12,-0.29 -0.25,-0.58 -0.38,-0.86c0.36,-0.34 0.72,-0.69 1.08,-1.07c0,0 0,-26.93 4.28,-34.28c0,0 11.63,-55.7 11,-69.78c-0.48,-11 30.17,-53.91 43.51,-72l-0.11,-0.69c3.53,-4.68 5.7,-7.48 5.7,-7.48l10.41,66.72c0,0 4.9,14.69 11,22.65c0,0 26.32,50.8 29.38,66.72c2.32,12.07 7.1,19.2 9.28,21.95c-0.25,0.26 -0.52,0.52 -0.8,0.78c-2.78,2.6 -6.9,5.2 -11.54,4.21c-8.57,-1.84 -8.57,13.47 3.67,14.69c7.88,0.79 23.38,4.37 33.41,6.82c0.553,0.136 1.121,0.205 1.69,0.205c3.884,0 7.08,-3.196 7.08,-7.08c0,-0.252 -0.013,-0.504 -0.04,-0.755c-0.69,-6.37 -2.06,-14.29 -4.7,-19c-0.227,-0.393 -0.46,-0.763 -0.7,-1.11c0.935,-0.382 1.767,-0.978 2.43,-1.74c0.663,-0.762 -15.91,-38.56 -15.91,-49c0,0 -6.73,-39.79 -29.38,-54.48c0,0 2.14,-49.76 8.59,-77.45c0.16,-0.667 0.323,-1.333 0.49,-2c6.014,-0.956 11.975,-2.218 17.86,-3.78l0.61,-18.36l3.06,14.69l34.28,-21.42c0,0 -0.3,-3.86 -0.88,-9.78c-0.29,-3 -0.65,-6.43 -1.08,-10.2c-0.34,-3 -0.73,-6.21 -1.16,-9.48c-0.107,-0.82 -0.217,-1.64 -0.33,-2.46c-0.45,-3.3 -0.94,-6.64 -1.47,-9.9c-0.2,-1.227 -0.407,-2.44 -0.62,-3.64c-0.28,-1.6 -0.57,-3.17 -0.87,-4.69c-0.153,-0.76 -0.307,-1.51 -0.46,-2.25c-0.153,-0.74 -0.31,-1.467 -0.47,-2.18c-0.16,-0.713 -0.323,-1.41 -0.49,-2.09l-0.25,-1c-0.167,-0.667 -0.337,-1.313 -0.51,-1.94c-0.716,-2.611 -1.132,-5.295 -1.24,-8c-0.04,-1.08 -0.04,-2.157 0,-3.23c0.04,-1.073 0.14,-2.147 0.3,-3.22c0.073,-0.533 0.16,-1.067 0.26,-1.6c0.395,-2.13 0.977,-4.222 1.74,-6.25c0.38,-1.02 0.807,-2.02 1.28,-3c1.11,-2.31 2.3,-4.82 3.52,-7.46c0.613,-1.333 1.233,-2.683 1.86,-4.05c0.627,-1.367 1.253,-2.767 1.88,-4.2c6,-13.49 11.84,-28.53 13.41,-38.41c0.17,-1 0.28,-2 0.35,-2.94c0.078,-0.874 0.098,-1.753 0.06,-2.63Z" style="fill:url(#_Linear3);fill-rule:nonzero;"/><path d="M930.53,223.47l-20.19,-13.66c0,0 -32.06,-11.87 -41,6.53c-8.94,18.4 38.59,8.91 38.59,8.91l20.19,11.28l2.41,-13.06Z" style="fill:#f7bbc3;fill-rule:nonzero;"/><path d="M990.25,639.74c-9.74,-2.37 -24.76,-5.85 -32.41,-6.61c-11.87,-1.19 -11.87,-16 -3.56,-14.25c4.51,1 8.5,-1.56 11.2,-4.08c0.841,-0.787 1.63,-1.629 2.36,-2.52c0.979,-1.193 2.332,-2.021 3.84,-2.35c4.45,-1 13.72,-2.44 19.42,0.63c1.315,0.818 2.378,1.985 3.07,3.37c2.56,4.54 3.89,12.22 4.56,18.4c0.027,0.246 0.04,0.494 0.04,0.741c0,3.769 -3.101,6.87 -6.87,6.87c-0.556,0 -1.11,-0.067 -1.65,-0.201Z" style="fill:#b77983;fill-rule:nonzero;"/><path d="M840.05,645.68c-9.74,-2.37 -24.76,-5.85 -32.41,-6.61c-11.87,-1.19 -11.87,-16 -3.56,-14.25c5.44,1.17 10.12,-2.76 12.71,-5.6c0.31,-0.35 0.6,-0.68 0.85,-1c0.979,-1.193 2.332,-2.021 3.84,-2.35c4.45,-1 13.72,-2.44 19.42,0.63c1.67,0.9 3,2.88 4.07,5.43c1.92,4.58 3,11 3.56,16.34c0.027,0.246 0.04,0.494 0.04,0.741c0,3.769 -3.101,6.87 -6.87,6.87c-0.556,0 -1.11,-0.067 -1.65,-0.201Z" style="fill:#b77983;fill-rule:nonzero;"/><path d="M844.95,621.93c-14.18,14.61 -26.33,-0.27 -28.17,-2.73c0.31,-0.35 0.6,-0.68 0.85,-1c0.979,-1.193 2.332,-2.021 3.84,-2.35c4.45,-1 13.72,-2.44 19.42,0.63c1.66,0.92 3,2.9 4.06,5.45Z" style="fill-opacity:0.1;fill-rule:nonzero;"/><path d="M994.16,613.93c-6.14,4.2 -26.82,3.16 -26.82,3.16c-0.675,-0.721 -1.297,-1.489 -1.86,-2.3c0.841,-0.787 1.63,-1.629 2.36,-2.52c0.979,-1.193 2.332,-2.021 3.84,-2.35c4.45,-1 13.72,-2.44 19.42,0.63c1.313,0.822 2.372,1.992 3.06,3.38l0,0Z" style="fill-opacity:0.1;fill-rule:nonzero;"/><path d="M995.24,611.16c-4.16,5.34 -27.9,4.16 -27.9,4.16c0,0 -7.12,-7.12 -10.09,-22.56c-2.97,-15.44 -28.45,-64.72 -28.45,-64.72c-5.94,-7.72 -10.69,-22 -10.69,-22l-10.09,-64.71c0,0 -48.73,64.14 -48.14,77.81c0.59,13.67 -10.69,67.68 -10.69,67.68c-4.16,7.12 -4.16,33.25 -4.16,33.25c-15.44,16 -28.5,-3 -28.5,-3c-3,-12.47 1.78,-53.43 1.78,-53.43c0,0 7.12,-34.43 7.72,-55.81c0.6,-21.38 7.77,-26.69 7.77,-26.69c5.547,-22.025 14.989,-42.881 27.88,-61.58c3.59,-5.14 6,-7.88 6,-7.88l96.12,11.28c-1.846,4.081 -3.234,8.354 -4.14,12.74c-6.25,26.86 -8.33,75.13 -8.33,75.13c22,14.25 28.5,52.84 28.5,52.84c-0.03,10.09 15.41,47.49 15.41,47.49Z" style="fill:#5d718e;fill-rule:nonzero;"/><g><g opacity="0.05"><path d="M902.67,449.27l-1.23,-7.91c0,0 -48.64,64.11 -48.09,77.78c0.55,13.67 -10.69,67.68 -10.69,67.68c-4.16,7.12 -4.16,33.25 -4.16,33.25c-2.484,2.818 -5.7,4.895 -9.29,6c4.68,1.23 10.36,0.33 16.42,-6c0,0 0,-26.12 4.16,-33.25c0,0 11.28,-54 10.69,-67.68c-0.47,-10.67 29.26,-52.3 42.19,-69.87Z" style="fill-rule:nonzero;"/><path d="M980.4,563.66c0,0 -6.53,-38.59 -28.5,-52.84c0,0 2.08,-48.26 8.33,-75.13c0.906,-4.386 2.294,-8.659 4.14,-12.74l-96.18,-11.28l-0.63,0.76l89.69,10.52c-1.846,4.081 -3.234,8.354 -4.14,12.74c-6.25,26.86 -8.33,75.13 -8.33,75.13c22,14.25 28.5,52.84 28.5,52.84c0,10.09 15.44,47.5 15.44,47.5c-2.45,3.15 -11.71,4 -18.89,4.22c5.7,0.15 22.58,0.2 26,-4.22c-0.03,0 -15.43,-37.4 -15.43,-47.5Z" style="fill-rule:nonzero;"/></g></g><path d="M849.8,403.36c-0.716,1.757 -1.66,3.411 -2.81,4.92c-3.57,4.81 -11,11.17 -24.59,9.43c-2.895,-0.378 -5.084,-2.871 -5.084,-5.791c0,-1.215 0.379,-2.4 1.084,-3.389c3.49,-4.86 9.29,-10.87 17.9,-13.72c2.456,-0.816 5.001,-1.333 7.58,-1.54l5.92,10.09Z" style="fill:#f7bbc3;fill-rule:nonzero;"/><path d="M975.17,237.33l-47.61,-17.41c0,0 -13.66,7.12 -8.31,17.22l46.31,29.09l9.61,-28.9Z" style="fill:#d9e0ea;fill-rule:nonzero;"/><path d="M975.17,237.33l-47.61,-17.41c0,0 -13.66,7.12 -8.31,17.22l46.31,29.09l9.61,-28.9Z" style="fill-opacity:0.1;fill-rule:nonzero;"/><path d="M976.8,208.63c0,0 -0.59,27.9 11.87,37.4c12.46,9.5 -36.22,14.84 -36.22,14.84c0,0 7.72,-28.5 0,-43.34c-7.72,-14.84 24.35,-8.9 24.35,-8.9Z" style="fill:#f7bbc3;fill-rule:nonzero;"/><path d="M963.8,422.96c-1.846,4.081 -3.234,8.354 -4.14,12.74c-57.42,8.77 -97.38,-15.12 -97.38,-15.12c-0.22,-0.34 -0.43,-0.69 -0.62,-1c3.59,-5.14 6,-7.88 6,-7.88l96.14,11.26Z" style="fill-opacity:0.1;fill-rule:nonzero;"/><path d="M849.8,403.36c-0.716,1.757 -1.66,3.411 -2.81,4.92c-5.5,-0.91 -9.89,-11.42 -10.7,-13.47c2.456,-0.816 5.001,-1.333 7.58,-1.54l5.93,10.09Z" style="fill-opacity:0.1;fill-rule:nonzero;"/><path d="M981.59,233.57l-21.37,7.72l-8.91,11.87c0,0 -18.4,5.94 -20.78,5.94c-2.38,0 -8.91,2.37 -13.06,11.87c-4.15,9.5 -19,55.81 -32.06,63.53c-13.06,7.72 -47.5,59.37 -47.5,59.37c0,0 5.94,16 13.06,13.66l16.63,-13.66c0,0 -13.06,13.06 -5.34,24.94c0,0 48.68,29.09 115.77,11.28l0.59,-17.81l3,14.25l33.18,-20.79c0,0 -3,-38.32 -8.34,-57.83c-2.222,-8.196 -1.409,-16.926 2.29,-24.57c8.62,-18 21.92,-48 20.3,-58.91c-1.91,-12.89 -9.2,-18.49 -12,-20.19c-0.637,-0.382 -1.351,-0.618 -2.09,-0.69l-10.81,-1.08l-22.56,-8.9Z" style="fill:#d8dfe9;fill-rule:nonzero;"/><path d="M945.08,293.23c0,0 -11.88,55.24 -24.94,64.12c-13.06,8.88 -48.09,37.4 -49.28,42.15" style="fill-opacity:0.05;fill-rule:nonzero;"/><path d="M939.73,291.47c0,0 -11.87,55.2 -24.93,64.1c-13.06,8.9 -48.09,37.4 -49.28,42.15" style="fill:#d8dfe9;fill-rule:nonzero;"/><path d="M951.01,252.86c0,0 41,-13.66 52.84,-10.09" style="fill-opacity:0.1;fill-rule:nonzero;"/><g><g opacity="0.05"><path d="M1008.8,323.35c8.62,-18 21.92,-48 20.3,-58.91c-1.91,-12.89 -9.2,-18.49 -12,-20.19c-0.637,-0.382 -1.351,-0.618 -2.09,-0.69l-4.62,-0.46c0.482,0.116 0.944,0.305 1.37,0.56c2.78,1.7 10.07,7.29 12,20.19c1.62,10.94 -11.68,40.94 -20.3,58.91c-3.699,7.644 -4.512,16.374 -2.29,24.57c5.36,19.5 8.34,57.83 8.34,57.83l-28.63,17.89l0.73,3.48l33.19,-20.79c0,0 -3,-38.32 -8.34,-57.83c-2.204,-8.199 -1.373,-16.925 2.34,-24.56l0,0Z" style="fill-rule:nonzero;"/><path d="M998.81,241.88l5.14,0.52l-22.36,-8.83l-2,0.72l19.22,7.59Z" style="fill-rule:nonzero;"/></g></g><path d="M939.73,349.04c0,0 18.4,-10.09 24.34,-7.72c5.94,2.37 27.9,-0.59 27.9,-0.59" style="fill-opacity:0.05;fill-rule:nonzero;"/><path d="M974.8,216.05c-0.68,-6 2.08,-5 2.08,-5c0,0 -32.08,-5.98 -24.38,8.86c1.955,4.091 3.077,8.531 3.3,13.06l0.3,0c8.9,0 14.1,-9.96 18.7,-16.92Z" style="fill-opacity:0.05;fill-rule:nonzero;"/><circle cx="956.06" cy="205.07" r="25.53" style="fill:#f7bbc3;"/><path d="M983.92,212.62c2.32,-5.08 4,-10.59 3.73,-16.17c-0.27,-5.58 -2.78,-11.24 -7.41,-14.36c-2.4,-1.61 -5.22,-2.48 -7.7,-3.95c-1.94,-1.15 -3.65,-2.64 -5.5,-3.93c-9.198,-6.252 -21.074,-7.115 -31.08,-2.26c-4.69,2.35 -8.68,5.85 -13.1,8.67c-4.42,2.82 -9.63,5 -14.81,4.15c-0.89,2.47 1.29,4.91 3.31,6.6c3.82,3.2 8.15,6.4 13.13,6.51c1.93,0 4,-0.37 5.71,0.44c1.181,0.65 2.184,1.58 2.92,2.71c2.396,3.185 4.425,6.63 6.05,10.27c0.67,1.49 1.34,3.11 2.71,4c2.29,1.47 5.27,0.25 8,0.14c4.23,-0.16 8,2.5 11.16,5.34c3.16,2.84 6.11,6.1 10.06,7.6c3,1.12 8.85,1.08 10.35,-2.44c0.57,-1.33 -0.52,-4.18 -0.3,-5.8c0.35,-2.67 1.65,-5.15 2.77,-7.52Z" style="fill-opacity:0.1;fill-rule:nonzero;"/><path d="M984.51,212.03c2.32,-5.08 4,-10.59 3.73,-16.17c-0.27,-5.58 -2.78,-11.24 -7.41,-14.36c-2.4,-1.61 -5.22,-2.48 -7.7,-3.95c-1.94,-1.15 -3.65,-2.64 -5.5,-3.93c-9.198,-6.252 -21.074,-7.115 -31.08,-2.26c-4.69,2.35 -8.68,5.85 -13.1,8.67c-4.42,2.82 -9.63,5 -14.81,4.15c-0.89,2.47 1.29,4.91 3.31,6.6c3.82,3.2 8.15,6.4 13.13,6.51c1.93,0 4,-0.37 5.71,0.44c1.181,0.65 2.184,1.58 2.92,2.71c2.409,3.18 4.452,6.622 6.09,10.26c0.67,1.49 1.34,3.11 2.71,4c2.29,1.47 5.27,0.25 8,0.14c4.23,-0.16 8,2.5 11.16,5.34c3.16,2.84 6.11,6.1 10.06,7.6c3,1.12 8.85,1.08 10.35,-2.44c0.57,-1.33 -0.52,-4.18 -0.3,-5.8c0.31,-2.63 1.65,-5.15 2.73,-7.51Z" style="fill:#a1616a;fill-rule:nonzero;"/><defs><linearGradient id="_Linear1" x1="0" y1="0" x2="1" y2="0" gradientUnits="userSpaceOnUse" gradientTransform="matrix(3.33104e-14,-544,544,3.33104e-14,534.8,625.47)"><stop offset="0" style="stop-color:#808080;stop-opacity:0.247059"/><stop offset="0.54" style="stop-color:#808080;stop-opacity:0.117647"/><stop offset="1" style="stop-color:#808080;stop-opacity:0.0980392"/></linearGradient><linearGradient id="_Linear2" x1="0" y1="0" x2="1" y2="0" gradientUnits="userSpaceOnUse" gradientTransform="matrix(7.9602e-15,-130,130,7.9602e-15,762.8,413.63)"><stop offset="0" style="stop-color:#808080;stop-opacity:0.247059"/><stop offset="0.54" style="stop-color:#808080;stop-opacity:0.117647"/><stop offset="1" style="stop-color:#808080;stop-opacity:0.0980392"/></linearGradient><linearGradient id="_Linear3" x1="0" y1="0" x2="1" y2="0" gradientUnits="userSpaceOnUse" gradientTransform="matrix(3.01533e-14,-492.44,492.44,3.01533e-14,913.72,653.28)"><stop offset="0" style="stop-color:#808080;stop-opacity:0.247059"/><stop offset="0.54" style="stop-color:#808080;stop-opacity:0.117647"/><stop offset="1" style="stop-color:#808080;stop-opacity:0.0980392"/></linearGradient></defs></svg>